<svg height="512pt" viewBox="0 -10 512.00102 512" width="512pt" xmlns="http://www.w3.org/2000/svg"><path d="m461.597656 191.472656c25.765625-28.640625 57.902344-78.777344 33.078125-132.9375-26.695312-58.25-78.308593-53.570312-107.21875-45.34375-4.648437 1.324219-4.382812 7.964844.339844 9 18.132813 3.984375 43.746094 17.199219 59.8125 58.132813 16.335937 41.636719-1.738281 77.527343-18.585937 99.40625-6.035157-.804688-12.355469-1.148438-18.851563-1.148438h-135.359375s-48.78125 1.828125-59.144531-60.972656c-10.367188-62.804687-44.511719-66.460937-70.121094-66.460937-44.507813 0-59.246094 43.074218-59.246094 43.074218l-77.921875 18.214844s2.308594 87.328125 90.285156 77.875c0 0 68.898438 74.019531 74.820313 101.171875 4.460937 20.441406 5.5625 119.5 5.835937 167.230469.082032 14.28125 11.679688 25.808594 25.964844 25.808594 14.339844 0 25.964844-11.625 25.964844-25.960938v-110.792969h141.726562s10.976563 37.507813 39.023438 48.484375v61.75c0 14.644532 11.875 26.519532 26.523438 26.519532 14.648437 0 26.523437-11.875 26.523437-26.519532v-105.039062s20.730469-43.292969 20.730469-101.828125c0-30.609375-9.339844-49.039063-24.179688-59.664063zm0 0" fill="#dd8858"/><g fill="#d97f4a"><path d="m204.25 374.769531v83.792969c0 9.394531-4.992188 17.621094-12.464844 22.179688 3.96875 2.417968 8.632813 3.804687 13.625 3.78125 14.386719-.066407 25.839844-12.15625 25.839844-26.542969v-110.210938c-14.914062 0-27 12.085938-27 27zm0 0"/><path d="m215.667969 117.609375c-10.367188-62.804687-44.511719-66.460937-70.121094-66.460937-3.804687 0-7.386719.320312-10.765625.898437 22.152344 2.96875 45.605469 15.394531 53.886719 65.5625 10.363281 62.800781 59.144531 60.972656 59.144531 60.972656h26.066406c-6.773437-.132812-48.691406-3.292969-58.210937-60.972656zm0 0"/><path d="m461.597656 191.472656c25.765625-28.636718 57.90625-78.773437 33.082032-132.9375-.875-1.910156-1.777344-3.746094-2.703126-5.519531-4.902343 95.890625-62.949218 126.714844-62.953124 126.714844-6.035157-.804688-12.351563-1.148438-18.851563-1.148438h-27c41.460937 0 75.605469 14.023438 75.605469 72.558594 0 58.53125-20.730469 101.824219-20.730469 101.824219v105.039062c0 9.714844-5.230469 18.207032-13.023437 22.828125 3.957031 2.34375 8.570312 3.695313 13.5 3.695313 14.648437 0 26.523437-11.875 26.523437-26.523438v-105.039062s20.730469-43.292969 20.730469-101.828125c0-30.609375-9.339844-49.039063-24.179688-59.664063zm0 0"/></g><path d="m176.617188 340.578125c.113281 0 .222656-.003906.332031-.007813 4.152343-.179687 7.375-3.691406 7.195312-7.84375-.953125-22.03125-2.128906-35.996093-3.589843-42.691406-2.757813-12.648437-16.269532-33.632812-41.300782-64.148437-17.96875-21.902344-35.445312-40.707031-35.621094-40.898438-1.613281-1.730469-3.953124-2.605469-6.3125-2.351562-24.007812 2.578125-43.261718-2.285157-57.226562-14.453125-10.1875-8.878906-16.238281-20.484375-19.832031-30.863282 9.238281-4.367187 15.449219-13.605468 15.683593-24.261718l51.484376-12.035156c2.527343-.589844 4.570312-2.4375 5.410156-4.890626.128906-.382812 13.492187-38.132812 52.328125-38.132812 12.558593 0 25.699219 1.019531 36.714843 8.429688 13.355469 8.980468 21.933594 25.976562 26.222657 51.960937 3.234375 19.613281 12.347656 45.878906 37.382812 59.59375 14.40625 7.898437 27.664063 7.925781 29.476563 7.886719h12.054687c4.152344 0 7.523438-3.367188 7.523438-7.527344 0-4.15625-3.371094-7.523438-7.523438-7.523438h-12.144531c-.0625 0-.171875 0-.238281.003907-1.726563.054687-42.546875.46875-51.683594-54.886719-5-30.296875-15.683594-50.578125-32.667969-61.996094-14.367187-9.664062-30.175781-10.996094-45.117187-10.996094-20.523438 0-38.566407 8.378907-52.183594 24.234376-6.65625 7.753906-10.710937 15.523437-12.753906 20.066406l-74.417969 17.402344c-3.476562.8125-5.9023438 3.957031-5.80859375 7.527343.04296875 1.710938 1.43749975 42.195313 30.09765575 67.265625 16.484376 14.417969 38.339844 20.636719 65.007813 18.519532 5.398437 5.910156 18.796875 20.765624 32.503906 37.472656 30.371094 37.023437 36.992188 52.113281 38.234375 57.8125.863282 3.960937 2.132813 14.136718 3.257813 40.132812.175781 4.039063 3.507812 7.199219 7.511719 7.199219zm0 0"/><path d="m317.121094 185.871094h93.582031c6.484375 0 12.511719.367187 17.917969 1.089844 2.640625.359374 5.335937-.757813 6.960937-2.867188 18.652344-24.21875 37.203125-62.457031 19.691407-107.085938-1.519532-3.871093-5.886719-5.78125-9.753907-4.257812-3.871093 1.515625-5.777343 5.882812-4.257812 9.753906 14.167969 36.105469.273437 67.816406-15.082031 89.027344-4.84375-.46875-10.03125-.710938-15.476563-.710938h-93.582031c-4.15625 0-7.527344 3.371094-7.527344 7.527344s3.371094 7.523438 7.527344 7.523438zm0 0"/><path d="m502.339844 54.75c-12.777344-27.878906-32.269532-45.34375-57.933594-51.917969-21.933594-5.613281-43.949219-1.835937-58.554688 2.316407-5.40625 1.539062-9.046874 6.578124-8.8125 12.191406.226563 5.550781 4.175782 10.238281 9.597657 11.429687 11.277343 2.476563 27.605469 9.472657 41.351562 28.71875 2.417969 3.382813 7.117188 4.167969 10.5 1.75 3.382813-2.414062 4.164063-7.117187 1.75-10.5-12.726562-17.816406-27.503906-26.945312-39.953125-31.59375 11.753906-2.308593 26.222656-3.355469 40.386719.273438 21.050781 5.386719 37.195313 20.058593 47.988281 43.605469 12.425782 27.113281 16.972656 70.851562-31.949218 125.222656-2.957032 3.289062-2.378907 8.582031 1.214843 11.15625 14.210938 10.175781 21.117188 27.757812 21.117188 53.753906 0 56.179688-19.867188 98.511719-20.0625 98.925781-.488281 1.011719-.738281 2.125-.738281 3.25v105.398438c0 10.527343-8.5625 19.089843-19.089844 19.089843s-19.089844-8.5625-19.089844-19.089843v-61.960938c0-3.097656-1.898438-5.878906-4.78125-7.007812-24.292969-9.503907-34.578125-43.425781-34.675781-43.757813-.941407-3.207031-3.882813-5.410156-7.226563-5.410156h-142.214844c-4.15625 0-7.527343 3.367188-7.527343 7.523438v111.175781c0 10.21875-8.308594 18.527343-18.527344 18.527343-10.15625 0-18.46875-8.261718-18.527344-18.417968-.144531-25.214844-.5-62.296875-1.390625-95.757813-.113281-4.15625-3.578125-7.441406-7.722656-7.324219-4.15625.109376-7.433594 3.566407-7.324219 7.722657.886719 33.332031 1.242188 70.300781 1.386719 95.445312.105469 18.410157 15.167969 33.382813 33.582031 33.382813 18.515625 0 33.578125-15.0625 33.578125-33.578125v-103.648438h129.339844c4.136719 10.835938 15.40625 34.949219 36.980469 45.980469v57.105469c0 18.824219 15.316406 34.140625 34.144531 34.140625 18.824219 0 34.136719-15.316406 34.136719-34.140625v-103.757813c3.84375-8.605468 20.804687-49.671875 20.804687-103.820312 0-15.753906-2.410156-29.355469-7.160156-40.421875-3.398438-7.917969-8.058594-14.722657-13.902344-20.308594 14.796875-17.5625 25.546875-35.601563 31.996094-53.707031 10.121094-28.414063 9.214844-55.988282-2.691406-81.964844zm0 0"/><path d="m182.035156 99.957031c-.480468 17.253907-5.722656 34.4375-10.585937 34.695313-.050781 0-.105469.003906-.160157.003906-5.917968 0-14.542968-17.140625-18.375-32.683594-.988281-4.039062-5.058593-6.515625-9.101562-5.519531-4.035156.988281-6.507812 5.0625-5.519531 9.097656 1.828125 7.457031 11.898437 44.15625 32.980469 44.15625.320312 0 .644531-.007812.96875-.023437 22.425781-1.179688 24.625-41.292969 24.839843-49.320313.109375-4.152343-3.167969-7.609375-7.320312-7.722656-4.179688-.152344-7.613281 3.164063-7.726563 7.316406zm0 0"/><path d="m100.964844 114.492188c0 9.445312 6.074218 16.84375 13.832031 16.84375s13.835937-7.398438 13.835937-16.84375c0-9.445313-6.078124-16.839844-13.835937-16.839844-7.753906 0-13.832031 7.394531-13.832031 16.839844zm0 0"/></svg>