<svg height="511pt" viewBox="0 -43 511.99983 511" width="511pt" xmlns="http://www.w3.org/2000/svg"><path d="m253.527344 125.757812c-25.652344-18.082031-46.792969-41.824218-61.730469-69.421874-13.332031-24.632813-38.738281-52.371094-84.71875-47.832032-80.523437 7.945313-126.765625 159.675782-32.839844 260.828125 93.925781 101.152344 243.933594 48.019531 276.449219 21.285157 0 0 67.222656 86.378906 103.207031 91.402343 25.984375 3.625 70.734375-61.6875 40.386719-85.53125-22.398438-17.597656-158.605469-112.828125-240.753906-170.730469zm0 0" fill="#aee295"/><path d="m462.894531 355.019531c-29.691406-4.144531-83.089843-66.242187-100.871093-87.84375-3.273438-3.980469-8.996094-4.820312-13.328126-2.023437-43.21875 27.910156-177.398437 72.007812-265.457031-22.820313-49.316406-53.113281-59.976562-120.15625-47.335937-173.019531-24.234375 55.277344-19.855469 137.347656 38.335937 200.019531 93.925781 101.152344 243.933594 48.019531 276.449219 21.285157 0 0 67.222656 86.378906 103.207031 91.402343 19.042969 2.65625 48.160157-31.707031 50.417969-59.644531-10.632812 18.9375-28.382812 34.464844-41.417969 32.644531zm0 0" fill="#98db7c"/><path d="m92.367188 157.683594c-22.3125.941406-21.519532-27.875-39.175782-6.746094-10.496094 12.5625-19.066406 21.667969-25.839844 26.308594 6.734376 10.050781 18.402344 18.289062 38.539063 14.828125 23.398437-4.015625 29.015625-20.316407 29.085937-34.871094-.835937.273437-1.703124.441406-2.609374.480469zm0 0" fill="#ff9a00"/><path d="m92.367188 157.683594c20.730468-.878906 24.5-66.199219-21.683594-72.917969-47.089844-6.851563-65.6875 37.089844-62.859375 72.917969s17.144531 27.035156 45.367187-6.746094c17.65625-21.128906 16.863282 7.6875 39.175782 6.746094zm0 0" fill="#ffc265"/><path d="m94.855469 128.21875c-23.898438 1.007812-23.046875-29.851562-41.957031-7.222656-24.125 28.875-38.761719 40.699218-45.226563 24.785156-.210937 4.011719-.15625 8.003906.152344 11.902344 2.828125 35.828125 17.144531 27.035156 45.367187-6.746094 17.652344-21.128906 16.863282 7.6875 39.175782 6.746094 11.078124-.46875 17.304687-19.335938 13.664062-37.835938-2.726562 4.984375-6.554688 8.175782-11.175781 8.371094zm0 0" fill="#ffb541"/><path d="m498.910156 290.617188c-17.589844-13.820313-104.027344-74.585938-180.289062-128.199219-21.707032-15.261719-42.585938-29.941407-60.804688-42.78125-3.386718-2.386719-8.066406-1.578125-10.453125 1.808593-2.386719 3.386719-1.578125 8.066407 1.808594 10.453126 18.226563 12.84375 39.109375 27.527343 60.820313 42.789062 76.109374 53.507812 162.375 114.152344 179.648437 127.726562 4.074219 3.199219 12.503906 13.089844 2.851563 35.765626-9.273438 21.796874-28.140626 37.753906-37.570313 36.445312-7.042969-.980469-23.789063-7.660156-56.851563-41.347656-2.902343-2.957032-7.648437-3.003906-10.605468-.101563-2.957032 2.902344-3.003906 7.652344-.101563 10.609375 27.976563 28.503906 49.394531 43.453125 65.484375 45.699219 1.015625.140625 2.050782.210937 3.109375.210937 8.589844 0 18.324219-4.671874 27.78125-13.40625 9.261719-8.558593 17.484375-20.308593 22.558594-32.234374 9.652344-22.6875 6.960937-42.160157-7.386719-53.4375zm0 0"/><path d="m356.582031 286.039062c-2.554687-3.28125-7.464843-3.832031-10.683593-1.1875-11.625 9.558594-47.394532 27.179688-93.898438 33.777344-37.25 5.285156-91.816406 4.871094-140.242188-27.089844-3.457031-2.28125-8.109374-1.332031-10.394531 2.128907-2.28125 3.457031-1.328125 8.109375 2.128907 10.390625 19.3125 12.746094 39.453124 20.855468 59.1875 25.734375v48.542969l-35.425782 5.371093c-4.097656.617188-6.914062 4.441407-6.292968 8.539063.613281 4.042968 4.496093 6.902344 8.539062 6.292968l21.015625-3.1875-10.878906 12.035157c-2.78125 3.070312-2.539063 7.8125.53125 10.59375 3.03125 2.738281 7.855469 2.496093 10.59375-.535157l24.980469-27.632812c.015624-.011719.023437-.03125.035156-.042969 1.1875-1.335937 1.902344-3.085937 1.902344-4.984375v-51.863281c13.519531 2.3125 26.691406 3.242187 39.089843 3.242187 6.121094 0 12.042969-.234374 17.738281-.628906v49.628906l-35.425781 5.367188c-4.09375.621094-6.910156 4.445312-6.289062 8.539062.613281 4.042969 4.496093 6.90625 8.539062 6.292969l21.011719-3.183593-10.878906 12.03125c-2.777344 3.074218-2.539063 7.816406.535156 10.59375 3.03125 2.742187 7.851562 2.5 10.59375-.53125l24.980469-27.632813c.011719-.011719.019531-.027344.03125-.042969 1.1875-1.332031 1.90625-3.085937 1.90625-4.988281v-57.523437c1.554687-.191407 3.09375-.394532 4.597656-.609376 39.835937-5.652343 76.074219-19.875 95.175781-32.542968 3.847656 4.734375 9.914063 12.050781 17.402344 20.546875 2.738281 3.105469 7.476562 3.40625 10.585938.667969 3.109374-2.742188 3.40625-7.480469.667968-10.585938-12.570312-14.257812-21.273437-25.414062-21.359375-25.523438zm0 0"/><path d="m79.6875 264.253906c-18.257812-19.660156-31.992188-42.625-40.433594-67.296875 8.761719 3.785157 18.546875 4.128907 27.855469 2.527344 21.148437-3.628906 33.484375-16.9375 35.128906-37.671875 6.941407-4.992188 11.546875-15.148438 12.214844-28.171875 1.226563-23.9375-11.628906-51.761719-42.738281-56.289063-11.816406-1.71875-22.738282-.578124-32.359375 3.277344 13.492187-37.058594 39.070312-61.765625 68.414062-64.664062 33.769531-3.332032 59.804688 11.453125 77.390625 43.945312 10.546875 19.488282 24.058594 37.121094 40.152344 52.417969 2.960938 2.8125 7.789062 2.691406 10.601562-.269531 2.855469-3.003906 2.734376-7.753906-.269531-10.605469-14.949219-14.207031-27.496093-30.585937-37.289062-48.683594-14.253907-26.339843-41.800781-56.6875-92.058594-51.734375-40.152344 3.964844-74.003906 40.507813-86.691406 93.320313-16.472657 17.84375-20.863281 44.339843-19.316407 63.929687.9375 11.871094 3.371094 25.925782 13.953126 29.300782 2.15625.6875 4.425781.855468 6.660156.53125 8.363281 31.855468 24.765625 61.546874 47.789062 86.339843 3.300782 3.558594 6.753906 7.011719 10.253906 10.269531 2.992188 2.785157 7.820313 2.609376 10.601563-.382812 2.820313-3.03125 2.652344-7.777344-.382813-10.601562-3.234374-3.007813-6.425781-6.199219-9.476562-9.488282zm-15.117188-79.554687c-11.269531 1.933593-20.03125-.140625-26.59375-6.324219 6.128907-5.476562 12.976563-13.105469 20.921876-22.617188 2.925781-3.503906 4.585937-4.617187 5.234374-4.953124.867188.554687 2.429688 2.085937 3.511719 3.140624 4.007813 3.925782 9.746094 9.507813 19.078125 10.921876-2.148437 11.25-9.320312 17.628906-22.152344 19.832031zm-31.6875-82.449219c7.589844-7.113281 17.058594-10.691406 28.226563-10.691406 2.714844 0 5.53125.210937 8.441406.632812 25.074219 3.648438 30.605469 27.289063 29.917969 40.679688-.5625 10.980468-4.769531 17.214844-7.464844 17.328125-6.464844.277343-9.894531-3.082031-13.863281-6.972657-3.574219-3.496093-8.039063-7.867187-14.613281-7.519531-6.867188.339844-12.234375 5.753907-16.140625 10.433594-8.339844 9.980469-14.589844 16.722656-19.664063 21.21875-5.359375 4.753906-8.019531 5.671875-8.847656 5.847656-.664062-.824219-2.695312-4.253906-3.632812-16.101562-1.710938-21.6875 5.210937-43.222657 17.640624-54.855469zm0 0"/><path d="m184.707031 245.074219c14.21875 6.609375 32.375 12.210937 53.105469 12.210937 20.53125 0 43.582031-5.496094 67.792969-20.957031 3.492187-2.226563 4.511719-6.867187 2.285156-10.355469-2.230469-3.492187-6.867187-4.515625-10.359375-2.285156-34.308594 21.902344-69.988281 24.59375-106.042969 7.996094-27.4375-12.628906-44.933593-32.234375-45.199219-32.535156-2.730468-3.109376-7.464843-3.421876-10.578124-.691407-3.117188 2.730469-3.429688 7.46875-.699219 10.585938.777343.886719 19.457031 21.976562 49.695312 36.03125zm0 0"/><path d="m151.324219 81.078125c0-10.605469-6.683594-18.910156-15.222657-18.910156-8.535156 0-15.222656 8.308593-15.222656 18.910156s6.6875 18.910156 15.222656 18.910156c8.539063 0 15.222657-8.308593 15.222657-18.910156zm0 0"/></svg>